<svg width="38" height="39" viewBox="0 0 38 39" fill="none" xmlns="http://www.w3.org/2000/svg">
<path d="M15.2 0C13.091 0 11.4 1.7355 11.4 3.9V9.75C11.4 11.9145 13.091 13.65 15.2 13.65H17.1V17.55H0V21.45H7.6V25.35H5.7C3.591 25.35 1.9 27.0855 1.9 29.25V35.1C1.9 37.2645 3.591 39 5.7 39H13.3C15.409 39 17.1 37.2645 17.1 35.1V29.25C17.1 27.0855 15.409 25.35 13.3 25.35H11.4V21.45H26.6V25.35H24.7C22.591 25.35 20.9 27.0855 20.9 29.25V35.1C20.9 37.2645 22.591 39 24.7 39H32.3C34.409 39 36.1 37.2645 36.1 35.1V29.25C36.1 27.0855 34.409 25.35 32.3 25.35H30.4V21.45H38V17.55H20.9V13.65H22.8C24.909 13.65 26.6 11.9145 26.6 9.75V3.9C26.6 1.7355 24.909 0 22.8 0H15.2ZM15.2 3.9H22.8V9.75H15.2V3.9ZM5.7 29.25H13.3V35.1H5.7V29.25ZM24.7 29.25H32.3V35.1H24.7V29.25Z" fill="white"/>
</svg>
