<svg width="31" height="32" viewBox="0 0 31 32" fill="none" xmlns="http://www.w3.org/2000/svg">
<path d="M17.05 22.4V25.6H18.6C19.0111 25.6 19.4053 25.7686 19.696 26.0686C19.9867 26.3687 20.15 26.7757 20.15 27.2H31V30.4H20.15C20.15 30.8243 19.9867 31.2313 19.696 31.5314C19.4053 31.8314 19.0111 32 18.6 32H12.4C11.9889 32 11.5947 31.8314 11.304 31.5314C11.0133 31.2313 10.85 30.8243 10.85 30.4H0V27.2H10.85C10.85 26.7757 11.0133 26.3687 11.304 26.0686C11.5947 25.7686 11.9889 25.6 12.4 25.6H13.95V22.4H4.65V20C4.65 16.912 9.5015 14.4 15.5 14.4C21.4985 14.4 26.35 16.912 26.35 20V22.4H17.05ZM15.5 0C16.9388 0 18.3187 0.589999 19.3361 1.6402C20.3534 2.69041 20.925 4.11479 20.925 5.6C20.925 7.08521 20.3534 8.50959 19.3361 9.5598C18.3187 10.61 16.9388 11.2 15.5 11.2C14.0612 11.2 12.6813 10.61 11.6639 9.5598C10.6466 8.50959 10.075 7.08521 10.075 5.6C10.075 4.11479 10.6466 2.69041 11.6639 1.6402C12.6813 0.589999 14.0612 0 15.5 0Z" fill="white"/>
</svg>
