<svg width="42" height="42" viewBox="0 0 42 42" fill="none" xmlns="http://www.w3.org/2000/svg">
<path d="M21 42C18.2422 42 15.5115 41.4568 12.9636 40.4015C10.4158 39.3461 8.10079 37.7993 6.15076 35.8492C2.21249 31.911 0 26.5695 0 21C0 15.4305 2.21249 10.089 6.15076 6.15076C10.089 2.21249 15.4305 0 21 0C32.55 0 42 8.4 42 18.9C42 22.2417 40.6725 25.4466 38.3095 27.8095C35.9466 30.1725 32.7417 31.5 29.4 31.5H25.62C24.99 31.5 24.57 31.92 24.57 32.55C24.57 32.76 24.78 32.97 24.78 33.18C25.62 34.23 26.04 35.49 26.04 36.75C26.25 39.69 23.94 42 21 42ZM21 4.2C16.5444 4.2 12.2712 5.97 9.12061 9.12061C5.97 12.2712 4.2 16.5444 4.2 21C4.2 25.4556 5.97 29.7288 9.12061 32.8794C12.2712 36.03 16.5444 37.8 21 37.8C21.63 37.8 22.05 37.38 22.05 36.75C22.05 36.33 21.84 36.12 21.84 35.91C21 34.86 20.58 33.81 20.58 32.55C20.58 29.61 22.89 27.3 25.83 27.3H29.4C31.6278 27.3 33.7644 26.415 35.3397 24.8397C36.915 23.2644 37.8 21.1278 37.8 18.9C37.8 10.71 30.24 4.2 21 4.2ZM9.45 16.8C11.13 16.8 12.6 18.27 12.6 19.95C12.6 21.63 11.13 23.1 9.45 23.1C7.77 23.1 6.3 21.63 6.3 19.95C6.3 18.27 7.77 16.8 9.45 16.8ZM15.75 8.4C17.43 8.4 18.9 9.87 18.9 11.55C18.9 13.23 17.43 14.7 15.75 14.7C14.07 14.7 12.6 13.23 12.6 11.55C12.6 9.87 14.07 8.4 15.75 8.4ZM26.25 8.4C27.93 8.4 29.4 9.87 29.4 11.55C29.4 13.23 27.93 14.7 26.25 14.7C24.57 14.7 23.1 13.23 23.1 11.55C23.1 9.87 24.57 8.4 26.25 8.4ZM32.55 16.8C34.23 16.8 35.7 18.27 35.7 19.95C35.7 21.63 34.23 23.1 32.55 23.1C30.87 23.1 29.4 21.63 29.4 19.95C29.4 18.27 30.87 16.8 32.55 16.8Z" fill="white"/>
</svg>
