<svg width="45" height="45" viewBox="0 0 45 45" fill="none" xmlns="http://www.w3.org/2000/svg">
<path d="M3.195 22.5C3.195 19.71 3.8025 17.055 4.86 14.625L14.085 39.87C7.6275 36.7425 3.195 30.15 3.195 22.5ZM35.5275 21.5325C35.5275 23.175 34.875 25.0875 34.065 27.765L32.13 34.2L25.155 13.5L27.36 13.275C28.4175 13.14 28.2825 11.61 27.2475 11.6775C27.2475 11.6775 24.12 11.925 22.095 11.925L17.01 11.6775C15.975 11.61 15.8625 13.2075 16.875 13.275L18.9225 13.5L21.9375 21.69L17.7075 34.3575L10.665 13.5L12.8925 13.275C13.9275 13.14 13.7925 11.61 12.7575 11.6775C12.7575 11.6775 9.63 11.925 7.605 11.925L6.3675 11.9025C9.8325 6.66 15.75 3.195 22.5 3.195C27.5175 3.195 32.1075 5.13 35.5275 8.2575H35.28C33.39 8.2575 32.04 9.9 32.04 11.6775C32.04 13.275 32.9625 14.625 33.93 16.2C34.6725 17.4825 35.5275 19.125 35.5275 21.5325ZM22.8375 24.1875L28.7775 40.4325L28.9125 40.7025C26.91 41.4225 24.75 41.805 22.5 41.805C20.61 41.805 18.7875 41.535 17.055 41.0175L22.8375 24.1875ZM39.4425 13.23C40.95 15.9975 41.805 19.125 41.805 22.5C41.805 29.61 37.935 35.8425 32.1975 39.1725L38.0925 22.14C39.195 19.395 39.5775 17.19 39.5775 15.2325L39.4425 13.23ZM22.5 0C25.4547 0 28.3806 0.58198 31.1104 1.71271C33.8402 2.84344 36.3206 4.50078 38.4099 6.5901C40.4992 8.67942 42.1566 11.1598 43.2873 13.8896C44.418 16.6194 45 19.5453 45 22.5C45 28.4674 42.6295 34.1903 38.4099 38.4099C34.1903 42.6295 28.4674 45 22.5 45C19.5453 45 16.6194 44.418 13.8896 43.2873C11.1598 42.1566 8.67942 40.4992 6.5901 38.4099C2.37053 34.1903 0 28.4674 0 22.5C0 16.5326 2.37053 10.8097 6.5901 6.5901C10.8097 2.37053 16.5326 0 22.5 0ZM22.5 43.965C34.335 43.965 43.965 34.335 43.965 22.5C43.965 10.665 34.335 1.035 22.5 1.035C10.665 1.035 1.035 10.665 1.035 22.5C1.035 34.335 10.665 43.965 22.5 43.965Z" fill="white"/>
</svg>
