<svg width="472" height="30" viewBox="0 0 472 30" fill="none" xmlns="http://www.w3.org/2000/svg">
<path d="M15.1445 7.68573C66.0919 7.07884 117.077 4.64436 168.034 3.9669C252.816 2.83975 295.562 3.01263 379.016 5.19996C407.432 5.94474 492.622 5.86317 464.164 8.96188C411.291 14.719 353.594 7.43596 300.98 7.35291C235.798 7.25003 170.291 5.35071 104.994 8.60486C77.4686 9.97665 50.0502 11.2956 22.5343 11.5844C15.8631 11.6544 9.20053 11.3205 2.52427 11.6938C-0.280796 11.8506 8.09788 12.1526 10.8955 12.2351C54.4955 13.5205 92.8968 13.8272 137.723 13.7475C218.02 13.6047 298.378 12.3113 378.767 8.24767C395.622 7.39565 412.425 7.61085 428.586 1.98686" stroke="#6F42C1" stroke-width="3" stroke-linecap="round"/>
</svg>