<svg width="23" height="24" viewBox="0 0 23 24" fill="none" xmlns="http://www.w3.org/2000/svg">
<path d="M4.62556 10.3867C6.46556 14.16 9.43 17.2533 13.0461 19.1733L15.8572 16.24C16.215 15.8667 16.7133 15.76 17.1606 15.9067C18.5917 16.4 20.125 16.6667 21.7222 16.6667C22.0611 16.6667 22.3861 16.8071 22.6257 17.0572C22.8654 17.3072 23 17.6464 23 18V22.6667C23 23.0203 22.8654 23.3594 22.6257 23.6095C22.3861 23.8595 22.0611 24 21.7222 24C15.9611 24 10.436 21.6119 6.36229 17.3611C2.28858 13.1103 0 7.34491 0 1.33333C0 0.979711 0.134623 0.640573 0.374252 0.390524C0.613882 0.140476 0.93889 0 1.27778 0H5.75C6.08889 0 6.4139 0.140476 6.65353 0.390524C6.89316 0.640573 7.02778 0.979711 7.02778 1.33333C7.02778 3 7.28333 4.6 7.75611 6.09333C7.89667 6.56 7.79444 7.08 7.43667 7.45333L4.62556 10.3867Z" fill="white"/>
</svg>
