<svg width="58" height="57" viewBox="0 0 58 57" fill="none" xmlns="http://www.w3.org/2000/svg">
<path d="M11.6644 24.6683C16.3044 33.63 23.78 40.9767 32.8989 45.5367L39.9878 38.57C40.89 37.6833 42.1467 37.43 43.2744 37.7783C46.8833 38.95 50.75 39.5833 54.7778 39.5833C55.6324 39.5833 56.452 39.917 57.0562 40.5108C57.6605 41.1047 58 41.9101 58 42.75V53.8333C58 54.6732 57.6605 55.4786 57.0562 56.0725C56.452 56.6664 55.6324 57 54.7778 57C40.2498 57 26.3169 51.3283 16.044 41.2326C5.77121 31.1369 0 17.4442 0 3.16667C0 2.32681 0.339483 1.52136 0.943767 0.927495C1.54805 0.33363 2.36764 0 3.22222 0H14.5C15.3546 0 16.1742 0.33363 16.7785 0.927495C17.3827 1.52136 17.7222 2.32681 17.7222 3.16667C17.7222 7.125 18.3667 10.925 19.5589 14.4717C19.9133 15.58 19.6556 16.815 18.7533 17.7017L11.6644 24.6683Z" fill="white"/>
</svg>
