<svg width="40" height="40" viewBox="0 0 40 40" fill="none" xmlns="http://www.w3.org/2000/svg">
<path d="M20 0C9 0 0 9 0 20C0 31 9 40 20 40C31 40 40 31 40 20C40 9 31 0 20 0ZM20 37.5C10.375 37.5 2.5 29.625 2.5 20C2.5 10.375 10.375 2.5 20 2.5C29.625 2.5 37.5 10.375 37.5 20C37.5 29.625 29.625 37.5 20 37.5Z" fill="white"/>
<path d="M17.5 14.875V17.625H14.375V21.25H17.5V29.875C18.125 30 18.75 30 19.5 30C20.125 30 20.75 30 21.5 29.875V21.25H24.25V21.125L24.75 17.5H21.25V15.125C21.25 14.125 21.75 13.125 23.25 13.125H25V10.25C25 10.25 23.625 10 22.25 10C19.375 10 17.5 11.75 17.5 14.875Z" fill="white"/>
</svg>
