<svg width="41" height="40" viewBox="0 0 41 40" fill="none" xmlns="http://www.w3.org/2000/svg">
<path d="M20.75 0C9.75 0 0.75 9 0.75 20C0.75 31 9.75 40 20.75 40C31.75 40 40.75 31 40.75 20C40.75 9 31.75 0 20.75 0ZM20.75 37.5C11.125 37.5 3.25 29.625 3.25 20C3.25 10.375 11.125 2.5 20.75 2.5C30.375 2.5 38.25 10.375 38.25 20C38.25 29.625 30.375 37.5 20.75 37.5Z" fill="white"/>
<path d="M13.25 17.25H17.5V27.375H13.25V17.25Z" fill="white"/>
<path d="M15.375 15.625C16.5486 15.625 17.5 14.6736 17.5 13.5C17.5 12.3264 16.5486 11.375 15.375 11.375C14.2014 11.375 13.25 12.3264 13.25 13.5C13.25 14.6736 14.2014 15.625 15.375 15.625Z" fill="white"/>
<path d="M22.875 18.25V17.25H19.5V27.5H23V21.625C23 19.625 26.125 19.75 26.375 21.625V27.625H29.625V19.625C29 16.375 23.875 16.5 22.875 18.25Z" fill="white"/>
</svg>
