<svg width="41" height="41" viewBox="0 0 41 41" fill="none" xmlns="http://www.w3.org/2000/svg">
<path d="M20.75 0.125C9.75 0.125 0.75 9.125 0.75 20.125C0.75 31.125 9.75 40.125 20.75 40.125C31.75 40.125 40.75 31.125 40.75 20.125C40.75 9.125 31.75 0.125 20.75 0.125ZM20.75 37.625C11.125 37.625 3.25 29.75 3.25 20.125C3.25 10.5 11.125 2.625 20.75 2.625C30.375 2.625 38.25 10.5 38.25 20.125C38.25 29.75 30.375 37.625 20.75 37.625Z" fill="white"/>
<path d="M29 11.75C28.5 11.25 27.875 10.875 27.25 10.625C26.625 10.375 25.875 10.25 24.875 10.125H16.625C15.5 10.125 14.875 10.375 14.25 10.625C13.625 10.875 13 11.25 12.5 11.75C12 12.25 11.625 12.875 11.375 13.5C11.125 14.125 11 14.875 10.875 15.875V24.125C10.875 25.25 11.125 25.875 11.375 26.5C11.625 27.125 12 27.75 12.5 28.25C13 28.75 13.625 29.125 14.25 29.375C14.875 29.625 15.625 29.75 16.625 29.875H24.875C26 29.875 26.625 29.625 27.25 29.375C27.875 29.125 28.5 28.75 29 28.25C29.5 27.75 29.875 27.125 30.125 26.5C30.375 25.875 30.5 25.125 30.625 24.125V20V15.875C30.625 14.75 30.375 14.125 30.125 13.5C29.875 12.875 29.5 12.25 29 11.75ZM28.875 20V24C28.875 25 28.625 25.5 28.5 25.875C28.375 26.375 28.125 26.625 27.75 27C27.375 27.375 27.125 27.625 26.625 27.75C26.25 27.875 25.75 28 24.75 28.125H16.75C15.75 28.125 15.25 27.875 14.875 27.75C14.375 27.625 14.125 27.375 13.75 27C13.375 26.625 13.125 26.375 13 25.875C12.875 25.5 12.75 25 12.625 24V20V16C12.625 15 12.875 14.5 13 14.125C13.125 13.625 13.375 13.375 13.75 13C14.125 12.625 14.375 12.375 14.875 12.25C15.25 12.125 15.75 12 16.75 11.875H24.75C25.75 11.875 26.25 12.125 26.625 12.25C27.125 12.375 27.375 12.625 27.75 13C28.125 13.375 28.375 13.625 28.5 14.125C28.625 14.5 28.75 15 28.875 16V20Z" fill="white"/>
<path d="M20.75 15C17.875 15 15.625 17.25 15.625 20.125C15.625 23 17.875 25.25 20.75 25.25C23.625 25.25 25.875 23 25.875 20.125C25.875 17.25 23.625 15 20.75 15ZM20.75 23.5C18.875 23.5 17.375 22 17.375 20.125C17.375 18.25 18.875 16.75 20.75 16.75C22.625 16.75 24.125 18.25 24.125 20.125C24.125 22 22.625 23.5 20.75 23.5Z" fill="white"/>
<path d="M26.125 16C26.8154 16 27.375 15.4404 27.375 14.75C27.375 14.0596 26.8154 13.5 26.125 13.5C25.4346 13.5 24.875 14.0596 24.875 14.75C24.875 15.4404 25.4346 16 26.125 16Z" fill="white"/>
</svg>
