<svg width="304" height="105" viewBox="0 0 304 105" fill="none" xmlns="http://www.w3.org/2000/svg">
<path d="M0 8.21456C0 12.6328 3.58172 16.2146 8 16.2146C12.4183 16.2146 16 12.6328 16 8.21456C16 3.79628 12.4183 0.214557 8 0.214557C3.58172 0.214557 0 3.79628 0 8.21456ZM8.05451 9.71357C9.0257 9.67825 10.0166 9.64709 11.0266 9.62025L10.9469 6.62131C9.92732 6.6484 8.92667 6.67987 7.94549 6.71555L8.05451 9.71357ZM17.0991 9.51427C19.0676 9.49704 21.0959 9.49523 23.1808 9.50984L23.2018 6.50991C21.1016 6.49519 19.0575 6.49702 17.0729 6.51439L17.0991 9.51427ZM29.2742 9.59687C31.2618 9.63931 33.2935 9.6961 35.3667 9.76799L35.4707 6.76979C33.3843 6.69744 31.3393 6.64028 29.3382 6.59755L29.2742 9.59687ZM41.4094 10.0155C43.3975 10.1092 45.4191 10.2165 47.4723 10.3378L47.6494 7.34306C45.5842 7.22099 43.5507 7.11311 41.5507 7.01882L41.4094 10.0155ZM53.5563 10.7329C55.5542 10.8742 57.5788 11.0287 59.6284 11.1968L59.8736 8.2068C57.8128 8.03779 55.777 7.8825 53.7679 7.74042L53.5563 10.7329ZM65.6632 11.725C67.6626 11.9111 69.6834 12.1099 71.7242 12.3221L72.0344 9.33821C69.9829 9.1249 67.9513 8.92495 65.9411 8.73793L65.6632 11.725ZM77.7823 12.9849C79.7714 13.2134 81.7775 13.4544 83.7994 13.7083L84.1732 10.7317C82.1408 10.4764 80.1241 10.2342 78.1245 10.0045L77.7823 12.9849ZM89.8418 14.5C91.8348 14.772 93.8416 15.0565 95.8609 15.3539L96.2981 12.3859C94.2681 12.0869 92.2508 11.8009 90.2474 11.5276L89.8418 14.5ZM101.864 16.2709C103.861 16.5869 105.868 16.9155 107.886 17.2571L108.387 14.2992C106.359 13.9558 104.34 13.6254 102.333 13.3078L101.864 16.2709ZM113.856 18.3013C115.843 18.6598 117.838 19.031 119.84 19.4153L120.406 16.469C118.392 16.0827 116.386 15.7094 114.389 15.349L113.856 18.3013ZM125.806 20.5943C127.782 20.9963 129.764 21.4111 131.752 21.8389L132.383 18.9061C130.384 18.4759 128.391 18.0588 126.404 17.6545L125.806 20.5943ZM137.701 23.1554C139.666 23.6021 141.635 24.0618 143.608 24.5346L144.307 21.6172C142.323 21.1416 140.343 20.6794 138.366 20.2301L137.701 23.1554ZM149.52 25.9888C151.477 26.4828 153.437 26.9899 155.398 27.5104L156.168 24.6108C154.194 24.0871 152.223 23.5769 150.254 23.08L149.52 25.9888ZM161.265 29.1066C163.213 29.6496 165.161 30.2061 167.11 30.7763L167.952 27.897C165.991 27.3232 164.031 26.7632 162.071 26.2168L161.265 29.1066ZM172.929 32.5205C174.864 33.1144 176.798 33.722 178.73 34.3436L179.649 31.4878C177.704 30.8619 175.757 30.2503 173.809 29.6526L172.929 32.5205ZM184.498 36.2427C186.416 36.8893 188.332 37.5499 190.245 38.225L191.244 35.396C189.317 34.7161 187.387 34.0508 185.456 33.3998L184.498 36.2427ZM195.956 40.2869C197.854 40.9883 199.749 41.7042 201.639 42.4349L202.721 39.6367C200.817 38.9005 198.908 38.1793 196.995 37.4728L195.956 40.2869ZM207.286 44.6681C209.162 45.4271 211.033 46.2011 212.898 46.9903L214.067 44.2275C212.188 43.432 210.302 42.652 208.411 41.887L207.286 44.6681ZM218.47 49.4026C220.32 50.2222 222.164 51.0573 224 51.908L225.261 49.1861C223.41 48.3281 221.551 47.486 219.684 46.6595L218.47 49.4026ZM229.484 54.5078C231.306 55.3912 233.119 56.2905 234.922 57.206L236.28 54.5309C234.46 53.607 232.631 52.6996 230.793 51.8084L229.484 54.5078ZM240.305 60.0019C242.093 60.9522 243.871 61.919 245.638 62.9025L247.097 60.2813C245.313 59.2882 243.518 58.3121 241.713 57.3529L240.305 60.0019ZM250.906 65.9052C252.655 66.9251 254.391 67.9621 256.115 69.0164L257.68 66.4572C255.938 65.3919 254.184 64.3442 252.418 63.3139L250.906 65.9052ZM261.253 72.2355C262.955 73.328 264.644 74.4381 266.319 75.566L267.995 73.0779C266.302 71.9373 264.594 70.8149 262.873 69.7106L261.253 72.2355ZM271.308 79.0106C272.958 80.1783 274.592 81.3642 276.211 82.5686L278.002 80.1618C276.364 78.943 274.71 77.7431 273.041 76.5618L271.308 79.0106ZM281.029 86.2466C282.619 87.4921 284.193 88.7565 285.748 90.0399L287.658 87.7259C286.082 86.426 284.489 85.1457 282.879 83.8848L281.029 86.2466ZM290.371 93.957C291.894 95.2826 293.399 96.6277 294.884 97.9924L296.914 95.7836C295.409 94.4002 293.884 93.0371 292.341 91.6939L290.371 93.957ZM299.285 102.151C300.008 102.854 300.726 103.562 301.439 104.275L303.561 102.154C302.837 101.431 302.109 100.713 301.375 99.9997L299.285 102.151Z" fill="#6F42C1"/>
</svg>
