<svg width="208" height="104" viewBox="0 0 208 104" fill="none" xmlns="http://www.w3.org/2000/svg">
<path d="M208 8.21407C208 12.6324 204.418 16.2141 200 16.2141C195.582 16.2141 192 12.6324 192 8.21407C192 3.7958 195.582 0.214073 200 0.214073C204.418 0.214073 208 3.7958 208 8.21407ZM199.919 9.71189C198.967 9.66049 197.985 9.61794 196.977 9.5848L197.075 6.58642C198.104 6.62023 199.107 6.66368 200.081 6.71625L199.919 9.71189ZM190.99 9.5013C189.079 9.50862 187.094 9.54695 185.04 9.61905L184.934 6.6209C187.019 6.54773 189.036 6.50876 190.978 6.50132L190.99 9.5013ZM179.074 9.91376C177.135 10.0365 175.146 10.188 173.111 10.3703L172.843 7.38223C174.904 7.19769 176.919 7.04417 178.885 6.91976L179.074 9.91376ZM167.158 10.978C165.213 11.2006 163.233 11.4505 161.22 11.7294L160.808 8.75777C162.844 8.47567 164.848 8.22271 166.816 7.99742L167.158 10.978ZM155.302 12.6194C153.361 12.9342 151.394 13.2756 149.405 13.6447L148.857 10.695C150.869 10.3217 152.858 9.97649 154.822 9.65812L155.302 12.6194ZM143.531 14.803C141.6 15.2064 139.65 15.6361 137.683 16.093L137.004 13.1708C138.993 12.7088 140.964 12.2743 142.918 11.8663L143.531 14.803ZM131.864 17.5141C129.947 18.0051 128.017 18.5222 126.076 19.0663L125.266 16.1776C127.229 15.6274 129.181 15.1045 131.12 14.6079L131.864 17.5141ZM120.333 20.7462C118.442 21.323 116.543 21.9257 114.636 22.5551L113.696 19.7064C115.624 19.0697 117.545 18.4601 119.458 17.8767L120.333 20.7462ZM108.979 24.4964C107.112 25.1615 105.24 25.8529 103.365 26.5711L102.292 23.7696C104.189 23.0428 106.083 22.3433 107.972 21.6703L108.979 24.4964ZM97.7996 28.7803C95.9638 29.5348 94.1269 30.3156 92.2902 31.1236L91.0822 28.3775C92.9416 27.5596 94.8011 26.7691 96.6593 26.0055L97.7996 28.7803ZM86.8525 33.5967C85.0577 34.4402 83.2646 35.3103 81.4747 36.2077L80.1301 33.5259C81.9431 32.6169 83.759 31.7357 85.5765 30.8816L86.8525 33.5967ZM76.1619 38.9578C74.4095 39.8941 72.6615 40.8573 70.9194 41.8482L69.4362 39.2404C71.2017 38.2363 72.9728 37.2603 74.7483 36.3118L76.1619 38.9578ZM65.7681 44.8702C64.0713 45.8967 62.3813 46.9504 60.6996 48.0318L59.0769 45.5085C60.7821 44.412 62.4953 43.3438 64.2153 42.3033L65.7681 44.8702ZM55.7164 51.3355C54.076 52.4564 52.4448 53.605 50.8239 54.7817L49.0615 52.354C50.7056 51.1603 52.3602 49.9954 54.0239 48.8585L55.7164 51.3355ZM46.0464 58.3562C44.4764 59.5667 42.9176 60.8049 41.3712 62.0713L39.4705 59.7503C41.0399 58.4651 42.6216 57.2086 44.2146 55.9804L46.0464 58.3562ZM36.8025 65.9275C35.3061 67.2293 33.8227 68.559 32.3535 69.917L30.3172 67.7139C31.8087 66.3353 33.3146 64.9855 34.8335 63.6641L36.8025 65.9275ZM28.0353 74.0317C26.6213 75.4207 25.222 76.8376 23.8384 78.2828L21.6713 76.2082C23.0763 74.7406 24.4972 73.3019 25.9329 71.8915L28.0353 74.0317ZM19.7679 82.6684C18.4462 84.1376 17.1404 85.6343 15.8517 87.1591L13.5604 85.2225C14.8693 83.674 16.1954 82.1539 17.5377 80.6619L19.7679 82.6684ZM12.0688 91.7785C10.8353 93.3336 9.61918 94.9162 8.42136 96.527L6.01406 94.7367C7.23058 93.1009 8.46571 91.4935 9.71851 89.9142L12.0688 91.7785ZM4.94212 101.36C4.37138 102.179 3.80528 103.005 3.24394 103.838L0.756061 102.162C1.32611 101.316 1.90099 100.477 2.48061 99.6449L4.94212 101.36Z" fill="#6F42C1"/>
</svg>
