<svg width="29" height="22" viewBox="0 0 29 22" fill="none" xmlns="http://www.w3.org/2000/svg">
<path d="M20.3 19.0667V22H0V19.0667C0 19.0667 0 13.2 10.15 13.2C20.3 13.2 20.3 19.0667 20.3 19.0667ZM15.225 5.13339C15.225 4.11812 14.9274 3.12564 14.3697 2.28148C13.8121 1.43731 13.0195 0.779356 12.0921 0.390828C11.1648 0.00229923 10.1444 -0.0993575 9.15992 0.0987126C8.17546 0.296783 7.27118 0.785684 6.56143 1.50359C5.85168 2.2215 5.36834 3.13617 5.17251 4.13193C4.9767 5.1277 5.0772 6.15984 5.46131 7.09783C5.84543 8.03582 6.4959 8.83753 7.33048 9.40159C8.16506 9.96564 9.14626 10.2667 10.15 10.2667C11.496 10.2667 12.7868 9.72588 13.7386 8.76319C14.6903 7.80051 15.225 6.49483 15.225 5.13339ZM20.213 13.2C21.1044 13.8978 21.8338 14.7847 22.3498 15.7982C22.8659 16.8118 23.1561 17.9275 23.2 19.0667V22H29V19.0667C29 19.0667 29 13.7427 20.213 13.2ZM18.85 7.71156e-05C17.8519 -0.00554418 16.8758 0.296278 16.0515 0.865408C16.9323 2.11022 17.4059 3.60262 17.4059 5.13339C17.4059 6.66417 16.9323 8.15657 16.0515 9.40138C16.8758 9.97051 17.8519 10.2723 18.85 10.2667C20.196 10.2667 21.4868 9.72588 22.4386 8.76319C23.3903 7.80051 23.925 6.49483 23.925 5.13339C23.925 3.77195 23.3903 2.46627 22.4386 1.50359C21.4868 0.540907 20.196 7.71156e-05 18.85 7.71156e-05Z" fill="white"/>
</svg>
