<svg width="49" height="48" viewBox="0 0 49 48" fill="none" xmlns="http://www.w3.org/2000/svg">
<path d="M16.6515 22.0672C15.6651 22.0706 14.6963 22.3277 13.8381 22.8139C15.0463 19.6866 17.0502 16.929 19.6515 14.8139C19.8003 14.6913 19.9235 14.5407 20.0141 14.3705C20.1047 14.2003 20.1609 14.0139 20.1795 13.822C20.1981 13.6301 20.1786 13.4364 20.1224 13.252C20.0661 13.0676 19.974 12.8961 19.8515 12.7473C19.7289 12.5984 19.5782 12.4752 19.408 12.3846C19.2378 12.294 19.0515 12.2378 18.8595 12.2192C18.6676 12.2007 18.474 12.2201 18.2895 12.2763C18.1051 12.3326 17.9336 12.4247 17.7848 12.5473C12.4515 16.8806 10.0781 22.8806 10.0781 26.6006C10.0873 27.9159 10.4793 29.2001 11.2062 30.2964C11.9331 31.3926 12.9634 32.2535 14.1715 32.7739C14.9533 33.1526 15.8094 33.353 16.6781 33.3606C17.4427 33.3977 18.2069 33.2792 18.9244 33.0122C19.6418 32.7452 20.2976 32.3353 20.8519 31.8073C21.4061 31.2793 21.8474 30.6442 22.1489 29.9406C22.4505 29.237 22.6059 28.4794 22.6059 27.7139C22.6059 26.9484 22.4505 26.1909 22.1489 25.4872C21.8474 24.7836 21.4061 24.1485 20.8519 23.6205C20.2976 23.0925 19.6418 22.6826 18.9244 22.4156C18.2069 22.1486 17.4427 22.0301 16.6781 22.0672H16.6515Z" fill="#6F42C1"/>
<path d="M31.505 22.067C30.5185 22.0691 29.5493 22.3264 28.6916 22.8137C29.8994 19.6896 31.898 16.9329 34.4916 14.8137C34.654 14.6967 34.7907 14.5477 34.8933 14.3759C34.9959 14.204 35.0622 14.013 35.0882 13.8146C35.1143 13.6162 35.0994 13.4146 35.0446 13.2221C34.9898 13.0296 34.8961 12.8504 34.7695 12.6955C34.6428 12.5406 34.4858 12.4132 34.308 12.3213C34.1303 12.2293 33.9356 12.1747 33.736 12.1608C33.5363 12.1469 33.336 12.174 33.1472 12.2404C32.9584 12.3068 32.7852 12.4112 32.6383 12.547C27.305 16.8804 24.9316 22.8804 24.9316 26.6004C24.938 27.9008 25.3185 29.1719 26.0278 30.2619C26.7371 31.3518 27.7452 32.2146 28.9316 32.747C29.7333 33.1368 30.6136 33.3375 31.505 33.3337C32.2696 33.3708 33.0338 33.2523 33.7512 32.9853C34.4687 32.7183 35.1244 32.3084 35.6787 31.7804C36.233 31.2524 36.6743 30.6173 36.9758 29.9137C37.2773 29.2101 37.4328 28.4525 37.4328 27.687C37.4328 26.9215 37.2773 26.164 36.9758 25.4603C36.6743 24.7567 36.233 24.1216 35.6787 23.5936C35.1244 23.0656 34.4687 22.6557 33.7512 22.3887C33.0338 22.1217 32.2696 22.0032 31.505 22.0404V22.067Z" fill="#6F42C1"/>
</svg>
