<svg width="40" height="40" viewBox="0 0 40 40" fill="none" xmlns="http://www.w3.org/2000/svg">
<path d="M20 0C9 0 0 9 0 20C0 31 9 40 20 40C31 40 40 31 40 20C40 9 31 0 20 0ZM20 37.5C10.375 37.5 2.5 29.625 2.5 20C2.5 10.375 10.375 2.5 20 2.5C29.625 2.5 37.5 10.375 37.5 20C37.5 29.625 29.625 37.5 20 37.5Z" fill="white"/>
<path d="M31.25 11.25H8.75C8 11.25 7.5 11.75 7.5 12.5V27.5C7.5 28.25 8 28.75 8.75 28.75H31.25C32 28.75 32.5 28.25 32.5 27.5V12.5C32.5 11.75 32 11.25 31.25 11.25ZM28 13.75L20 20.875L12 13.75H28ZM10 26.25V15.25L19.125 23.375C19.375 23.625 19.625 23.75 20 23.75C20.375 23.75 20.625 23.625 20.875 23.375L30 15.25V26.25H10Z" fill="white"/>
</svg>
