<svg width="70" height="54" viewBox="0 0 70 54" fill="none" xmlns="http://www.w3.org/2000/svg">
<path d="M17.5 49.2353C22.9091 49.2353 30.7045 51.3 35 54C39.2955 51.3 47.0909 49.2353 52.5 49.2353C57.75 49.2353 63.1591 50.1882 67.6136 52.5706C67.9318 52.7294 68.0909 52.7294 68.4091 52.7294C69.2045 52.7294 70 51.9353 70 51.1412V4.76471C68.0909 3.33529 66.0227 2.38235 63.6364 1.58824C60.1045 0.476471 56.2227 0 52.5 0C46.2955 0 39.6136 1.27059 35 4.76471C30.3864 1.27059 23.7045 0 17.5 0C13.7773 0 9.89545 0.476471 6.36364 1.58824C3.97727 2.38235 1.90909 3.33529 0 4.76471V51.1412C0 51.9353 0.795455 52.7294 1.59091 52.7294C1.90909 52.7294 2.06818 52.7294 2.38636 52.5706C6.84091 50.1882 12.25 49.2353 17.5 49.2353ZM35 47.6471V11.1176C39.2955 8.41765 47.0909 6.35294 52.5 6.35294C56.3182 6.35294 60.1364 6.82941 63.6364 7.94118V44.4706C60.1364 43.3588 56.3182 42.8824 52.5 42.8824C47.0909 42.8824 39.2955 44.9471 35 47.6471Z" fill="white"/>
</svg>
