<svg width="34" height="34" viewBox="0 0 34 34" fill="none" xmlns="http://www.w3.org/2000/svg">
<g clip-path="url(#clip0_74_276)">
<path d="M28.0396 11.1622L19.722 3.87062C18.9596 3.18865 17.9725 2.81165 16.9495 2.81165C15.9265 2.81165 14.9395 3.18865 14.177 3.87062L5.85951 11.1622C5.41921 11.5562 5.06781 12.0392 4.8288 12.5794C4.58979 13.1196 4.46855 13.7045 4.47328 14.2953V26.4111C4.47328 27.514 4.91144 28.5718 5.69136 29.3517C6.47127 30.1316 7.52906 30.5698 8.63203 30.5698H25.267C26.37 30.5698 27.4278 30.1316 28.2077 29.3517C28.9876 28.5718 29.4257 27.514 29.4257 26.4111V14.2813C29.4285 13.693 29.3063 13.1108 29.0674 12.5731C28.8285 12.0354 28.4781 11.5545 28.0396 11.1622ZM19.722 27.7973H14.177V20.8661C14.177 20.4984 14.3231 20.1458 14.583 19.8858C14.843 19.6258 15.1956 19.4797 15.5633 19.4797H18.3358C18.7035 19.4797 19.0561 19.6258 19.316 19.8858C19.576 20.1458 19.722 20.4984 19.722 20.8661V27.7973ZM26.6533 26.4111C26.6533 26.7787 26.5072 27.1313 26.2472 27.3914C25.9873 27.6513 25.6346 27.7973 25.267 27.7973H22.4945V20.8661C22.4945 19.7631 22.0564 18.7053 21.2765 17.9254C20.4965 17.1455 19.4388 16.7074 18.3358 16.7074H15.5633C14.4603 16.7074 13.4025 17.1455 12.6226 17.9254C11.8426 18.7053 11.4045 19.7631 11.4045 20.8661V27.7973H8.63203C8.26439 27.7973 7.9118 27.6513 7.65183 27.3914C7.39186 27.1313 7.2458 26.7787 7.2458 26.4111V14.2813C7.246 14.0845 7.28819 13.8901 7.36943 13.7107C7.45074 13.5315 7.56925 13.3716 7.7171 13.2416L16.0346 5.96384C16.2876 5.74159 16.6128 5.61903 16.9495 5.61903C17.2863 5.61903 17.6115 5.74159 17.8644 5.96384L26.1819 13.2416C26.3298 13.3716 26.4483 13.5315 26.5296 13.7107C26.6109 13.8901 26.653 14.0845 26.6533 14.2813V26.4111Z" fill="#6F42C1"/>
</g>
<defs>
<clipPath id="clip0_74_276">
<rect width="33.27" height="33.27" fill="white" transform="translate(0.47998 0.149902)"/>
</clipPath>
</defs>
</svg>
