<svg width="41" height="41" viewBox="0 0 41 41" fill="none" xmlns="http://www.w3.org/2000/svg">
<path d="M20.75 0.125C9.75 0.125 0.75 9.125 0.75 20.125C0.75 31.125 9.75 40.125 20.75 40.125C31.75 40.125 40.75 31.125 40.75 20.125C40.75 9.125 31.75 0.125 20.75 0.125ZM20.75 37.625C11.125 37.625 3.25 29.75 3.25 20.125C3.25 10.5 11.125 2.625 20.75 2.625C30.375 2.625 38.25 10.5 38.25 20.125C38.25 29.75 30.375 37.625 20.75 37.625Z" fill="white"/>
<path d="M29.5 12.75C27.75 12.25 20.75 12.25 20.75 12.25C20.75 12.25 13.75 12.25 12 12.75C11 13 10.25 13.75 10 14.75C9.5 16.5 9.5 20.125 9.5 20.125C9.5 20.125 9.5 23.75 10 25.5C10.25 26.5 11 27.25 12 27.5C13.75 28 20.75 28 20.75 28C20.75 28 27.75 28 29.5 27.5C30.5 27.25 31.25 26.5 31.5 25.5C32 23.75 32 20.125 32 20.125C32 20.125 32 16.5 31.5 14.75C31.25 13.75 30.5 13 29.5 12.75ZM18.75 23.5V16.75L24.375 20.125L18.75 23.5Z" fill="white"/>
</svg>
