<svg width="209" height="71" viewBox="0 0 209 71" fill="none" xmlns="http://www.w3.org/2000/svg">
<path d="M62.8182 7.72727H66.1818L74.0909 27.0455H74.3636L82.2727 7.72727H85.6364V31H83V13.3182H82.7727L75.5 31H72.9545L65.6818 13.3182H65.4545V31H62.8182V7.72727ZM96.0597 31.4091C94.9536 31.4091 93.9498 31.2008 93.0483 30.7841C92.1468 30.3598 91.4309 29.75 90.9006 28.9545C90.3703 28.1515 90.1051 27.1818 90.1051 26.0455C90.1051 25.0455 90.3021 24.2348 90.696 23.6136C91.09 22.9848 91.6165 22.4924 92.2756 22.1364C92.9347 21.7803 93.6619 21.5152 94.4574 21.3409C95.2604 21.1591 96.0672 21.0152 96.8778 20.9091C97.9384 20.7727 98.7983 20.6705 99.4574 20.6023C100.124 20.5265 100.609 20.4015 100.912 20.2273C101.223 20.053 101.378 19.75 101.378 19.3182V19.2273C101.378 18.1061 101.071 17.2348 100.457 16.6136C99.8513 15.9924 98.9309 15.6818 97.696 15.6818C96.4157 15.6818 95.4119 15.9621 94.6847 16.5227C93.9574 17.0833 93.446 17.6818 93.1506 18.3182L90.6051 17.4091C91.0597 16.3485 91.6657 15.5227 92.4233 14.9318C93.1884 14.3333 94.0218 13.9167 94.9233 13.6818C95.8324 13.4394 96.7263 13.3182 97.6051 13.3182C98.1657 13.3182 98.8097 13.3864 99.5369 13.5227C100.272 13.6515 100.98 13.9205 101.662 14.3295C102.351 14.7386 102.923 15.3561 103.378 16.1818C103.832 17.0076 104.06 18.1136 104.06 19.5V31H101.378V28.6364H101.241C101.06 29.0152 100.757 29.4205 100.332 29.8523C99.9081 30.2841 99.3438 30.6515 98.6392 30.9545C97.9347 31.2576 97.0748 31.4091 96.0597 31.4091ZM96.4688 29C97.5294 29 98.4233 28.7917 99.1506 28.375C99.8854 27.9583 100.438 27.4205 100.81 26.7614C101.188 26.1023 101.378 25.4091 101.378 24.6818V22.2273C101.264 22.3636 101.014 22.4886 100.628 22.6023C100.249 22.7083 99.8097 22.803 99.3097 22.8864C98.8172 22.9621 98.3362 23.0303 97.8665 23.0909C97.4044 23.1439 97.0294 23.1894 96.7415 23.2273C96.0445 23.3182 95.393 23.4659 94.7869 23.6705C94.1884 23.8674 93.7036 24.1667 93.3324 24.5682C92.9688 24.9621 92.7869 25.5 92.7869 26.1818C92.7869 27.1136 93.1316 27.8182 93.821 28.2955C94.518 28.7652 95.4006 29 96.4688 29ZM108.955 13.5455H111.636V32.2727C111.636 33.3485 111.451 34.2803 111.08 35.0682C110.716 35.8561 110.163 36.4659 109.42 36.8977C108.686 37.3295 107.758 37.5455 106.636 37.5455C106.545 37.5455 106.455 37.5455 106.364 37.5455C106.273 37.5455 106.182 37.5455 106.091 37.5455V35.0455C106.182 35.0455 106.265 35.0455 106.341 35.0455C106.417 35.0455 106.5 35.0455 106.591 35.0455C107.409 35.0455 108.008 34.803 108.386 34.3182C108.765 33.8409 108.955 33.1591 108.955 32.2727V13.5455ZM110.273 10.6364C109.75 10.6364 109.299 10.4583 108.92 10.1023C108.549 9.74621 108.364 9.31818 108.364 8.81818C108.364 8.31818 108.549 7.89015 108.92 7.53409C109.299 7.17803 109.75 7 110.273 7C110.795 7 111.242 7.17803 111.614 7.53409C111.992 7.89015 112.182 8.31818 112.182 8.81818C112.182 9.31818 111.992 9.74621 111.614 10.1023C111.242 10.4583 110.795 10.6364 110.273 10.6364ZM123.866 31.3636C122.185 31.3636 120.734 30.9924 119.514 30.25C118.302 29.5 117.366 28.4545 116.707 27.1136C116.056 25.7652 115.73 24.197 115.73 22.4091C115.73 20.6212 116.056 19.0455 116.707 17.6818C117.366 16.3106 118.283 15.2424 119.457 14.4773C120.639 13.7045 122.018 13.3182 123.594 13.3182C124.503 13.3182 125.401 13.4697 126.287 13.7727C127.173 14.0758 127.98 14.5682 128.707 15.25C129.435 15.9242 130.014 16.8182 130.446 17.9318C130.878 19.0455 131.094 20.4167 131.094 22.0455V23.1818H117.639V20.8636H128.366C128.366 19.8788 128.17 19 127.776 18.2273C127.389 17.4545 126.836 16.8447 126.116 16.3977C125.404 15.9508 124.563 15.7273 123.594 15.7273C122.526 15.7273 121.601 15.9924 120.821 16.5227C120.048 17.0455 119.454 17.7273 119.037 18.5682C118.62 19.4091 118.412 20.3106 118.412 21.2727V22.8182C118.412 24.1364 118.639 25.2538 119.094 26.1705C119.556 27.0795 120.196 27.7727 121.014 28.25C121.832 28.7197 122.783 28.9545 123.866 28.9545C124.571 28.9545 125.207 28.8561 125.776 28.6591C126.351 28.4545 126.848 28.1515 127.264 27.75C127.681 27.3409 128.003 26.8333 128.23 26.2273L130.821 26.9545C130.548 27.8333 130.09 28.6061 129.446 29.2727C128.802 29.9318 128.007 30.447 127.06 30.8182C126.113 31.1818 125.048 31.3636 123.866 31.3636ZM147.537 17.4545L145.128 18.1364C144.976 17.7348 144.753 17.3447 144.457 16.9659C144.17 16.5795 143.776 16.2614 143.276 16.0114C142.776 15.7614 142.135 15.6364 141.355 15.6364C140.287 15.6364 139.397 15.8826 138.685 16.375C137.98 16.8598 137.628 17.4773 137.628 18.2273C137.628 18.8939 137.87 19.4205 138.355 19.8068C138.84 20.1932 139.598 20.5152 140.628 20.7727L143.219 21.4091C144.779 21.7879 145.942 22.3674 146.707 23.1477C147.473 23.9205 147.855 24.9167 147.855 26.1364C147.855 27.1364 147.567 28.0303 146.991 28.8182C146.423 29.6061 145.628 30.2273 144.605 30.6818C143.582 31.1364 142.393 31.3636 141.037 31.3636C139.257 31.3636 137.783 30.9773 136.616 30.2045C135.45 29.4318 134.711 28.303 134.401 26.8182L136.946 26.1818C137.188 27.1212 137.647 27.8258 138.321 28.2955C139.003 28.7652 139.893 29 140.991 29C142.241 29 143.234 28.7348 143.969 28.2045C144.711 27.6667 145.082 27.0227 145.082 26.2727C145.082 25.6667 144.87 25.1591 144.446 24.75C144.022 24.3333 143.37 24.0227 142.491 23.8182L139.582 23.1364C137.984 22.7576 136.81 22.1705 136.06 21.375C135.317 20.572 134.946 19.5682 134.946 18.3636C134.946 17.3788 135.223 16.5076 135.776 15.75C136.336 14.9924 137.098 14.3977 138.06 13.9659C139.029 13.5341 140.128 13.3182 141.355 13.3182C143.082 13.3182 144.438 13.697 145.423 14.4545C146.416 15.2121 147.12 16.2121 147.537 17.4545ZM159.483 13.5455V15.8182H150.438V13.5455H159.483ZM153.074 9.36364H155.756V26C155.756 26.7576 155.866 27.3258 156.085 27.7045C156.313 28.0758 156.6 28.3258 156.949 28.4545C157.305 28.5758 157.68 28.6364 158.074 28.6364C158.369 28.6364 158.612 28.6212 158.801 28.5909C158.991 28.553 159.142 28.5227 159.256 28.5L159.801 30.9091C159.619 30.9773 159.366 31.0455 159.04 31.1136C158.714 31.1894 158.301 31.2273 157.801 31.2273C157.044 31.2273 156.301 31.0644 155.574 30.7386C154.854 30.4129 154.256 29.9167 153.778 29.25C153.309 28.5833 153.074 27.7424 153.074 26.7273V9.36364ZM163.517 31V13.5455H166.199V31H163.517ZM164.881 10.6364C164.358 10.6364 163.907 10.4583 163.528 10.1023C163.157 9.74621 162.972 9.31818 162.972 8.81818C162.972 8.31818 163.157 7.89015 163.528 7.53409C163.907 7.17803 164.358 7 164.881 7C165.403 7 165.85 7.17803 166.222 7.53409C166.6 7.89015 166.79 8.31818 166.79 8.81818C166.79 9.31818 166.6 9.74621 166.222 10.1023C165.85 10.4583 165.403 10.6364 164.881 10.6364ZM178.202 31.3636C176.565 31.3636 175.156 30.9773 173.974 30.2045C172.793 29.4318 171.884 28.3674 171.247 27.0114C170.611 25.6553 170.293 24.1061 170.293 22.3636C170.293 20.5909 170.618 19.0265 171.27 17.6705C171.929 16.3068 172.846 15.2424 174.02 14.4773C175.202 13.7045 176.58 13.3182 178.156 13.3182C179.384 13.3182 180.49 13.5455 181.474 14C182.459 14.4545 183.266 15.0909 183.895 15.9091C184.524 16.7273 184.914 17.6818 185.065 18.7727H182.384C182.179 17.9773 181.724 17.2727 181.02 16.6591C180.323 16.0379 179.384 15.7273 178.202 15.7273C177.156 15.7273 176.24 16 175.452 16.5455C174.671 17.0833 174.062 17.8447 173.622 18.8295C173.19 19.8068 172.974 20.9545 172.974 22.2727C172.974 23.6212 173.187 24.7955 173.611 25.7955C174.043 26.7955 174.649 27.572 175.429 28.125C176.217 28.678 177.141 28.9545 178.202 28.9545C178.899 28.9545 179.531 28.8333 180.099 28.5909C180.668 28.3485 181.149 28 181.543 27.5455C181.937 27.0909 182.217 26.5455 182.384 25.9091H185.065C184.914 26.9394 184.539 27.8674 183.94 28.6932C183.349 29.5114 182.565 30.1629 181.588 30.6477C180.618 31.125 179.49 31.3636 178.202 31.3636Z" fill="white"/>
<path d="M75.5455 52.5455C75.4091 51.3939 74.8561 50.5 73.8864 49.8636C72.9167 49.2273 71.7273 48.9091 70.3182 48.9091C69.2879 48.9091 68.3864 49.0758 67.6136 49.4091C66.8485 49.7424 66.25 50.2008 65.8182 50.7841C65.3939 51.3674 65.1818 52.0303 65.1818 52.7727C65.1818 53.3939 65.3295 53.928 65.625 54.375C65.928 54.8144 66.3144 55.1818 66.7841 55.4773C67.2538 55.7652 67.7462 56.0038 68.2614 56.1932C68.7765 56.375 69.25 56.5227 69.6818 56.6364L72.0455 57.2727C72.6515 57.4318 73.3258 57.6515 74.0682 57.9318C74.8182 58.2121 75.5341 58.5947 76.2159 59.0795C76.9053 59.5568 77.4735 60.1705 77.9205 60.9205C78.3674 61.6705 78.5909 62.5909 78.5909 63.6818C78.5909 64.9394 78.2614 66.0758 77.6023 67.0909C76.9508 68.1061 75.9962 68.9129 74.7386 69.5114C73.4886 70.1098 71.9697 70.4091 70.1818 70.4091C68.5152 70.4091 67.072 70.1402 65.8523 69.6023C64.6402 69.0644 63.6856 68.3144 62.9886 67.3523C62.2992 66.3902 61.9091 65.2727 61.8182 64H64.7273C64.803 64.8788 65.0985 65.6061 65.6136 66.1818C66.1364 66.75 66.7955 67.1742 67.5909 67.4545C68.3939 67.7273 69.2576 67.8636 70.1818 67.8636C71.2576 67.8636 72.2235 67.6894 73.0795 67.3409C73.9356 66.9848 74.6136 66.4924 75.1136 65.8636C75.6136 65.2273 75.8636 64.4848 75.8636 63.6364C75.8636 62.8636 75.6477 62.2348 75.2159 61.75C74.7841 61.2652 74.2159 60.8712 73.5114 60.5682C72.8068 60.2652 72.0455 60 71.2273 59.7727L68.3636 58.9545C66.5455 58.4318 65.1061 57.6856 64.0455 56.7159C62.9848 55.7462 62.4545 54.4773 62.4545 52.9091C62.4545 51.6061 62.8068 50.4697 63.5114 49.5C64.2235 48.5227 65.178 47.7652 66.375 47.2273C67.5795 46.6818 68.9242 46.4091 70.4091 46.4091C71.9091 46.4091 73.2424 46.678 74.4091 47.2159C75.5758 47.7462 76.5 48.4735 77.1818 49.3977C77.8712 50.322 78.2348 51.3712 78.2727 52.5455H75.5455ZM89.9517 70.3636C88.3759 70.3636 86.9934 69.9886 85.804 69.2386C84.6222 68.4886 83.6979 67.4394 83.0312 66.0909C82.3722 64.7424 82.0426 63.1667 82.0426 61.3636C82.0426 59.5455 82.3722 57.9583 83.0312 56.6023C83.6979 55.2462 84.6222 54.1932 85.804 53.4432C86.9934 52.6932 88.3759 52.3182 89.9517 52.3182C91.5275 52.3182 92.9063 52.6932 94.0881 53.4432C95.2775 54.1932 96.2017 55.2462 96.8608 56.6023C97.5275 57.9583 97.8608 59.5455 97.8608 61.3636C97.8608 63.1667 97.5275 64.7424 96.8608 66.0909C96.2017 67.4394 95.2775 68.4886 94.0881 69.2386C92.9063 69.9886 91.5275 70.3636 89.9517 70.3636ZM89.9517 67.9545C91.1487 67.9545 92.1335 67.6477 92.9062 67.0341C93.679 66.4205 94.2509 65.6136 94.6222 64.6136C94.9934 63.6136 95.179 62.5303 95.179 61.3636C95.179 60.197 94.9934 59.1098 94.6222 58.1023C94.2509 57.0947 93.679 56.2803 92.9062 55.6591C92.1335 55.0379 91.1487 54.7273 89.9517 54.7273C88.7547 54.7273 87.7699 55.0379 86.9972 55.6591C86.2244 56.2803 85.6525 57.0947 85.2812 58.1023C84.91 59.1098 84.7244 60.197 84.7244 61.3636C84.7244 62.5303 84.91 63.6136 85.2812 64.6136C85.6525 65.6136 86.2244 66.4205 86.9972 67.0341C87.7699 67.6477 88.7547 67.9545 89.9517 67.9545ZM109.727 52.5455V54.8182H100.318V52.5455H109.727ZM103.136 70V50.1364C103.136 49.1364 103.371 48.303 103.841 47.6364C104.311 46.9697 104.92 46.4697 105.67 46.1364C106.42 45.803 107.212 45.6364 108.045 45.6364C108.705 45.6364 109.242 45.6894 109.659 45.7955C110.076 45.9015 110.386 46 110.591 46.0909L109.818 48.4091C109.682 48.3636 109.492 48.3068 109.25 48.2386C109.015 48.1705 108.705 48.1364 108.318 48.1364C107.432 48.1364 106.792 48.3598 106.398 48.8068C106.011 49.2538 105.818 49.9091 105.818 50.7727V70H103.136ZM121.077 52.5455V54.8182H112.031V52.5455H121.077ZM114.668 48.3636H117.349V65C117.349 65.7576 117.459 66.3258 117.679 66.7045C117.906 67.0758 118.194 67.3258 118.543 67.4545C118.899 67.5758 119.274 67.6364 119.668 67.6364C119.963 67.6364 120.205 67.6212 120.395 67.5909C120.584 67.553 120.736 67.5227 120.849 67.5L121.395 69.9091C121.213 69.9773 120.959 70.0455 120.634 70.1136C120.308 70.1894 119.895 70.2273 119.395 70.2273C118.637 70.2273 117.895 70.0644 117.168 69.7386C116.448 69.4129 115.849 68.9167 115.372 68.25C114.902 67.5833 114.668 66.7424 114.668 65.7273V48.3636ZM137.162 56.4545L134.753 57.1364C134.601 56.7348 134.378 56.3447 134.082 55.9659C133.795 55.5795 133.401 55.2614 132.901 55.0114C132.401 54.7614 131.76 54.6364 130.98 54.6364C129.912 54.6364 129.022 54.8826 128.31 55.375C127.605 55.8598 127.253 56.4773 127.253 57.2273C127.253 57.8939 127.495 58.4205 127.98 58.8068C128.465 59.1932 129.223 59.5152 130.253 59.7727L132.844 60.4091C134.404 60.7879 135.567 61.3674 136.332 62.1477C137.098 62.9205 137.48 63.9167 137.48 65.1364C137.48 66.1364 137.192 67.0303 136.616 67.8182C136.048 68.6061 135.253 69.2273 134.23 69.6818C133.207 70.1364 132.018 70.3636 130.662 70.3636C128.882 70.3636 127.408 69.9773 126.241 69.2045C125.075 68.4318 124.336 67.303 124.026 65.8182L126.571 65.1818C126.813 66.1212 127.272 66.8258 127.946 67.2955C128.628 67.7652 129.518 68 130.616 68C131.866 68 132.859 67.7348 133.594 67.2045C134.336 66.6667 134.707 66.0227 134.707 65.2727C134.707 64.6667 134.495 64.1591 134.071 63.75C133.647 63.3333 132.995 63.0227 132.116 62.8182L129.207 62.1364C127.609 61.7576 126.435 61.1705 125.685 60.375C124.942 59.572 124.571 58.5682 124.571 57.3636C124.571 56.3788 124.848 55.5076 125.401 54.75C125.961 53.9924 126.723 53.3977 127.685 52.9659C128.654 52.5341 129.753 52.3182 130.98 52.3182C132.707 52.3182 134.063 52.697 135.048 53.4545C136.041 54.2121 136.745 55.2121 137.162 56.4545Z" fill="#6F42C1"/>
<path fill-rule="evenodd" clip-rule="evenodd" d="M5 0C2.23858 0 0 2.23858 0 5V47C0 49.7614 2.23857 52 5 52H48.5294C51.2908 52 53.5294 49.7614 53.5294 47V5C53.5294 2.23858 51.2908 0 48.5294 0H5ZM15.4706 45.1176V14.0794L24.717 22.0462C27.1491 24.1417 30.7997 23.9515 33.0009 21.6146L38.8235 15.4332V24.7121C38.8235 26.9212 40.6144 28.7121 42.8235 28.7121C45.0327 28.7121 46.8235 26.9212 46.8235 24.7121V10.3931C46.8235 4.96078 40.1808 2.32481 36.456 6.27911L28.4895 14.7366L17.387 5.17066C13.4981 1.81988 7.47059 4.5828 7.47059 9.71615V45.1176C7.47059 47.3268 9.26145 49.1176 11.4706 49.1176C13.6797 49.1176 15.4706 47.3268 15.4706 45.1176Z" fill="white"/>
</svg>
