<svg width="275" height="52" viewBox="0 0 275 52" fill="none" xmlns="http://www.w3.org/2000/svg">
<path d="M62.8182 14.7273H66.1818L74.0909 34.0455H74.3636L82.2727 14.7273H85.6364V38H83V20.3182H82.7727L75.5 38H72.9545L65.6818 20.3182H65.4545V38H62.8182V14.7273ZM96.0597 38.4091C94.9536 38.4091 93.9498 38.2008 93.0483 37.7841C92.1468 37.3598 91.4309 36.75 90.9006 35.9545C90.3703 35.1515 90.1051 34.1818 90.1051 33.0455C90.1051 32.0455 90.3021 31.2348 90.696 30.6136C91.09 29.9848 91.6165 29.4924 92.2756 29.1364C92.9347 28.7803 93.6619 28.5152 94.4574 28.3409C95.2604 28.1591 96.0672 28.0152 96.8778 27.9091C97.9384 27.7727 98.7983 27.6705 99.4574 27.6023C100.124 27.5265 100.609 27.4015 100.912 27.2273C101.223 27.053 101.378 26.75 101.378 26.3182V26.2273C101.378 25.1061 101.071 24.2348 100.457 23.6136C99.8513 22.9924 98.9309 22.6818 97.696 22.6818C96.4157 22.6818 95.4119 22.9621 94.6847 23.5227C93.9574 24.0833 93.446 24.6818 93.1506 25.3182L90.6051 24.4091C91.0597 23.3485 91.6657 22.5227 92.4233 21.9318C93.1884 21.3333 94.0218 20.9167 94.9233 20.6818C95.8324 20.4394 96.7263 20.3182 97.6051 20.3182C98.1657 20.3182 98.8097 20.3864 99.5369 20.5227C100.272 20.6515 100.98 20.9205 101.662 21.3295C102.351 21.7386 102.923 22.3561 103.378 23.1818C103.832 24.0076 104.06 25.1136 104.06 26.5V38H101.378V35.6364H101.241C101.06 36.0152 100.757 36.4205 100.332 36.8523C99.9081 37.2841 99.3438 37.6515 98.6392 37.9545C97.9347 38.2576 97.0748 38.4091 96.0597 38.4091ZM96.4688 36C97.5294 36 98.4233 35.7917 99.1506 35.375C99.8854 34.9583 100.438 34.4205 100.81 33.7614C101.188 33.1023 101.378 32.4091 101.378 31.6818V29.2273C101.264 29.3636 101.014 29.4886 100.628 29.6023C100.249 29.7083 99.8097 29.803 99.3097 29.8864C98.8172 29.9621 98.3362 30.0303 97.8665 30.0909C97.4044 30.1439 97.0294 30.1894 96.7415 30.2273C96.0445 30.3182 95.393 30.4659 94.7869 30.6705C94.1884 30.8674 93.7036 31.1667 93.3324 31.5682C92.9688 31.9621 92.7869 32.5 92.7869 33.1818C92.7869 34.1136 93.1316 34.8182 93.821 35.2955C94.518 35.7652 95.4006 36 96.4688 36ZM108.955 20.5455H111.636V39.2727C111.636 40.3485 111.451 41.2803 111.08 42.0682C110.716 42.8561 110.163 43.4659 109.42 43.8977C108.686 44.3295 107.758 44.5455 106.636 44.5455C106.545 44.5455 106.455 44.5455 106.364 44.5455C106.273 44.5455 106.182 44.5455 106.091 44.5455V42.0455C106.182 42.0455 106.265 42.0455 106.341 42.0455C106.417 42.0455 106.5 42.0455 106.591 42.0455C107.409 42.0455 108.008 41.803 108.386 41.3182C108.765 40.8409 108.955 40.1591 108.955 39.2727V20.5455ZM110.273 17.6364C109.75 17.6364 109.299 17.4583 108.92 17.1023C108.549 16.7462 108.364 16.3182 108.364 15.8182C108.364 15.3182 108.549 14.8902 108.92 14.5341C109.299 14.178 109.75 14 110.273 14C110.795 14 111.242 14.178 111.614 14.5341C111.992 14.8902 112.182 15.3182 112.182 15.8182C112.182 16.3182 111.992 16.7462 111.614 17.1023C111.242 17.4583 110.795 17.6364 110.273 17.6364ZM123.866 38.3636C122.185 38.3636 120.734 37.9924 119.514 37.25C118.302 36.5 117.366 35.4545 116.707 34.1136C116.056 32.7652 115.73 31.197 115.73 29.4091C115.73 27.6212 116.056 26.0455 116.707 24.6818C117.366 23.3106 118.283 22.2424 119.457 21.4773C120.639 20.7045 122.018 20.3182 123.594 20.3182C124.503 20.3182 125.401 20.4697 126.287 20.7727C127.173 21.0758 127.98 21.5682 128.707 22.25C129.435 22.9242 130.014 23.8182 130.446 24.9318C130.878 26.0455 131.094 27.4167 131.094 29.0455V30.1818H117.639V27.8636H128.366C128.366 26.8788 128.17 26 127.776 25.2273C127.389 24.4545 126.836 23.8447 126.116 23.3977C125.404 22.9508 124.563 22.7273 123.594 22.7273C122.526 22.7273 121.601 22.9924 120.821 23.5227C120.048 24.0455 119.454 24.7273 119.037 25.5682C118.62 26.4091 118.412 27.3106 118.412 28.2727V29.8182C118.412 31.1364 118.639 32.2538 119.094 33.1705C119.556 34.0795 120.196 34.7727 121.014 35.25C121.832 35.7197 122.783 35.9545 123.866 35.9545C124.571 35.9545 125.207 35.8561 125.776 35.6591C126.351 35.4545 126.848 35.1515 127.264 34.75C127.681 34.3409 128.003 33.8333 128.23 33.2273L130.821 33.9545C130.548 34.8333 130.09 35.6061 129.446 36.2727C128.802 36.9318 128.007 37.447 127.06 37.8182C126.113 38.1818 125.048 38.3636 123.866 38.3636ZM147.537 24.4545L145.128 25.1364C144.976 24.7348 144.753 24.3447 144.457 23.9659C144.17 23.5795 143.776 23.2614 143.276 23.0114C142.776 22.7614 142.135 22.6364 141.355 22.6364C140.287 22.6364 139.397 22.8826 138.685 23.375C137.98 23.8598 137.628 24.4773 137.628 25.2273C137.628 25.8939 137.87 26.4205 138.355 26.8068C138.84 27.1932 139.598 27.5152 140.628 27.7727L143.219 28.4091C144.779 28.7879 145.942 29.3674 146.707 30.1477C147.473 30.9205 147.855 31.9167 147.855 33.1364C147.855 34.1364 147.567 35.0303 146.991 35.8182C146.423 36.6061 145.628 37.2273 144.605 37.6818C143.582 38.1364 142.393 38.3636 141.037 38.3636C139.257 38.3636 137.783 37.9773 136.616 37.2045C135.45 36.4318 134.711 35.303 134.401 33.8182L136.946 33.1818C137.188 34.1212 137.647 34.8258 138.321 35.2955C139.003 35.7652 139.893 36 140.991 36C142.241 36 143.234 35.7348 143.969 35.2045C144.711 34.6667 145.082 34.0227 145.082 33.2727C145.082 32.6667 144.87 32.1591 144.446 31.75C144.022 31.3333 143.37 31.0227 142.491 30.8182L139.582 30.1364C137.984 29.7576 136.81 29.1705 136.06 28.375C135.317 27.572 134.946 26.5682 134.946 25.3636C134.946 24.3788 135.223 23.5076 135.776 22.75C136.336 21.9924 137.098 21.3977 138.06 20.9659C139.029 20.5341 140.128 20.3182 141.355 20.3182C143.082 20.3182 144.438 20.697 145.423 21.4545C146.416 22.2121 147.12 23.2121 147.537 24.4545ZM159.483 20.5455V22.8182H150.438V20.5455H159.483ZM153.074 16.3636H155.756V33C155.756 33.7576 155.866 34.3258 156.085 34.7045C156.313 35.0758 156.6 35.3258 156.949 35.4545C157.305 35.5758 157.68 35.6364 158.074 35.6364C158.369 35.6364 158.612 35.6212 158.801 35.5909C158.991 35.553 159.142 35.5227 159.256 35.5L159.801 37.9091C159.619 37.9773 159.366 38.0455 159.04 38.1136C158.714 38.1894 158.301 38.2273 157.801 38.2273C157.044 38.2273 156.301 38.0644 155.574 37.7386C154.854 37.4129 154.256 36.9167 153.778 36.25C153.309 35.5833 153.074 34.7424 153.074 33.7273V16.3636ZM163.517 38V20.5455H166.199V38H163.517ZM164.881 17.6364C164.358 17.6364 163.907 17.4583 163.528 17.1023C163.157 16.7462 162.972 16.3182 162.972 15.8182C162.972 15.3182 163.157 14.8902 163.528 14.5341C163.907 14.178 164.358 14 164.881 14C165.403 14 165.85 14.178 166.222 14.5341C166.6 14.8902 166.79 15.3182 166.79 15.8182C166.79 16.3182 166.6 16.7462 166.222 17.1023C165.85 17.4583 165.403 17.6364 164.881 17.6364ZM178.202 38.3636C176.565 38.3636 175.156 37.9773 173.974 37.2045C172.793 36.4318 171.884 35.3674 171.247 34.0114C170.611 32.6553 170.293 31.1061 170.293 29.3636C170.293 27.5909 170.618 26.0265 171.27 24.6705C171.929 23.3068 172.846 22.2424 174.02 21.4773C175.202 20.7045 176.58 20.3182 178.156 20.3182C179.384 20.3182 180.49 20.5455 181.474 21C182.459 21.4545 183.266 22.0909 183.895 22.9091C184.524 23.7273 184.914 24.6818 185.065 25.7727H182.384C182.179 24.9773 181.724 24.2727 181.02 23.6591C180.323 23.0379 179.384 22.7273 178.202 22.7273C177.156 22.7273 176.24 23 175.452 23.5455C174.671 24.0833 174.062 24.8447 173.622 25.8295C173.19 26.8068 172.974 27.9545 172.974 29.2727C172.974 30.6212 173.187 31.7955 173.611 32.7955C174.043 33.7955 174.649 34.572 175.429 35.125C176.217 35.678 177.141 35.9545 178.202 35.9545C178.899 35.9545 179.531 35.8333 180.099 35.5909C180.668 35.3485 181.149 35 181.543 34.5455C181.937 34.0909 182.217 33.5455 182.384 32.9091H185.065C184.914 33.9394 184.539 34.8674 183.94 35.6932C183.349 36.5114 182.565 37.1629 181.588 37.6477C180.618 38.125 179.49 38.3636 178.202 38.3636Z" fill="white"/>
<path d="M211.077 20.5455C210.94 19.3939 210.387 18.5 209.418 17.8636C208.448 17.2273 207.259 16.9091 205.849 16.9091C204.819 16.9091 203.918 17.0758 203.145 17.4091C202.38 17.7424 201.781 18.2008 201.349 18.7841C200.925 19.3674 200.713 20.0303 200.713 20.7727C200.713 21.3939 200.861 21.928 201.156 22.375C201.459 22.8144 201.846 23.1818 202.315 23.4773C202.785 23.7652 203.277 24.0038 203.793 24.1932C204.308 24.375 204.781 24.5227 205.213 24.6364L207.577 25.2727C208.183 25.4318 208.857 25.6515 209.599 25.9318C210.349 26.2121 211.065 26.5947 211.747 27.0795C212.437 27.5568 213.005 28.1705 213.452 28.9205C213.899 29.6705 214.122 30.5909 214.122 31.6818C214.122 32.9394 213.793 34.0758 213.134 35.0909C212.482 36.1061 211.527 36.9129 210.27 37.5114C209.02 38.1098 207.501 38.4091 205.713 38.4091C204.046 38.4091 202.603 38.1402 201.384 37.6023C200.171 37.0644 199.217 36.3144 198.52 35.3523C197.83 34.3902 197.44 33.2727 197.349 32H200.259C200.334 32.8788 200.63 33.6061 201.145 34.1818C201.668 34.75 202.327 35.1742 203.122 35.4545C203.925 35.7273 204.789 35.8636 205.713 35.8636C206.789 35.8636 207.755 35.6894 208.611 35.3409C209.467 34.9848 210.145 34.4924 210.645 33.8636C211.145 33.2273 211.395 32.4848 211.395 31.6364C211.395 30.8636 211.179 30.2348 210.747 29.75C210.315 29.2652 209.747 28.8712 209.043 28.5682C208.338 28.2652 207.577 28 206.759 27.7727L203.895 26.9545C202.077 26.4318 200.637 25.6856 199.577 24.7159C198.516 23.7462 197.986 22.4773 197.986 20.9091C197.986 19.6061 198.338 18.4697 199.043 17.5C199.755 16.5227 200.709 15.7652 201.906 15.2273C203.111 14.6818 204.455 14.4091 205.94 14.4091C207.44 14.4091 208.774 14.678 209.94 15.2159C211.107 15.7462 212.031 16.4735 212.713 17.3977C213.402 18.322 213.766 19.3712 213.804 20.5455H211.077ZM225.483 38.3636C223.907 38.3636 222.525 37.9886 221.335 37.2386C220.153 36.4886 219.229 35.4394 218.562 34.0909C217.903 32.7424 217.574 31.1667 217.574 29.3636C217.574 27.5455 217.903 25.9583 218.562 24.6023C219.229 23.2462 220.153 22.1932 221.335 21.4432C222.525 20.6932 223.907 20.3182 225.483 20.3182C227.059 20.3182 228.438 20.6932 229.619 21.4432C230.809 22.1932 231.733 23.2462 232.392 24.6023C233.059 25.9583 233.392 27.5455 233.392 29.3636C233.392 31.1667 233.059 32.7424 232.392 34.0909C231.733 35.4394 230.809 36.4886 229.619 37.2386C228.438 37.9886 227.059 38.3636 225.483 38.3636ZM225.483 35.9545C226.68 35.9545 227.665 35.6477 228.438 35.0341C229.21 34.4205 229.782 33.6136 230.153 32.6136C230.525 31.6136 230.71 30.5303 230.71 29.3636C230.71 28.197 230.525 27.1098 230.153 26.1023C229.782 25.0947 229.21 24.2803 228.438 23.6591C227.665 23.0379 226.68 22.7273 225.483 22.7273C224.286 22.7273 223.301 23.0379 222.528 23.6591C221.756 24.2803 221.184 25.0947 220.812 26.1023C220.441 27.1098 220.256 28.197 220.256 29.3636C220.256 30.5303 220.441 31.6136 220.812 32.6136C221.184 33.6136 221.756 34.4205 222.528 35.0341C223.301 35.6477 224.286 35.9545 225.483 35.9545ZM245.259 20.5455V22.8182H235.849V20.5455H245.259ZM238.668 38V18.1364C238.668 17.1364 238.902 16.303 239.372 15.6364C239.842 14.9697 240.452 14.4697 241.202 14.1364C241.952 13.803 242.743 13.6364 243.577 13.6364C244.236 13.6364 244.774 13.6894 245.19 13.7955C245.607 13.9015 245.918 14 246.122 14.0909L245.349 16.4091C245.213 16.3636 245.024 16.3068 244.781 16.2386C244.546 16.1705 244.236 16.1364 243.849 16.1364C242.963 16.1364 242.323 16.3598 241.929 16.8068C241.543 17.2538 241.349 17.9091 241.349 18.7727V38H238.668ZM256.608 20.5455V22.8182H247.562V20.5455H256.608ZM250.199 16.3636H252.881V33C252.881 33.7576 252.991 34.3258 253.21 34.7045C253.438 35.0758 253.725 35.3258 254.074 35.4545C254.43 35.5758 254.805 35.6364 255.199 35.6364C255.494 35.6364 255.737 35.6212 255.926 35.5909C256.116 35.553 256.267 35.5227 256.381 35.5L256.926 37.9091C256.744 37.9773 256.491 38.0455 256.165 38.1136C255.839 38.1894 255.426 38.2273 254.926 38.2273C254.169 38.2273 253.426 38.0644 252.699 37.7386C251.979 37.4129 251.381 36.9167 250.903 36.25C250.434 35.5833 250.199 34.7424 250.199 33.7273V16.3636ZM272.693 24.4545L270.284 25.1364C270.133 24.7348 269.909 24.3447 269.614 23.9659C269.326 23.5795 268.932 23.2614 268.432 23.0114C267.932 22.7614 267.292 22.6364 266.511 22.6364C265.443 22.6364 264.553 22.8826 263.841 23.375C263.136 23.8598 262.784 24.4773 262.784 25.2273C262.784 25.8939 263.027 26.4205 263.511 26.8068C263.996 27.1932 264.754 27.5152 265.784 27.7727L268.375 28.4091C269.936 28.7879 271.098 29.3674 271.864 30.1477C272.629 30.9205 273.011 31.9167 273.011 33.1364C273.011 34.1364 272.723 35.0303 272.148 35.8182C271.58 36.6061 270.784 37.2273 269.761 37.6818C268.739 38.1364 267.549 38.3636 266.193 38.3636C264.413 38.3636 262.939 37.9773 261.773 37.2045C260.606 36.4318 259.867 35.303 259.557 33.8182L262.102 33.1818C262.345 34.1212 262.803 34.8258 263.477 35.2955C264.159 35.7652 265.049 36 266.148 36C267.398 36 268.39 35.7348 269.125 35.2045C269.867 34.6667 270.239 34.0227 270.239 33.2727C270.239 32.6667 270.027 32.1591 269.602 31.75C269.178 31.3333 268.527 31.0227 267.648 30.8182L264.739 30.1364C263.14 29.7576 261.966 29.1705 261.216 28.375C260.473 27.572 260.102 26.5682 260.102 25.3636C260.102 24.3788 260.379 23.5076 260.932 22.75C261.492 21.9924 262.254 21.3977 263.216 20.9659C264.186 20.5341 265.284 20.3182 266.511 20.3182C268.239 20.3182 269.595 20.697 270.58 21.4545C271.572 22.2121 272.277 23.2121 272.693 24.4545Z" fill="#6F42C1"/>
<path fill-rule="evenodd" clip-rule="evenodd" d="M5 0C2.23858 0 0 2.23858 0 5V47C0 49.7614 2.23857 52 5 52H48.5294C51.2908 52 53.5294 49.7614 53.5294 47V5C53.5294 2.23858 51.2908 0 48.5294 0H5ZM15.4706 45.1176V14.0794L24.717 22.0462C27.1491 24.1417 30.7997 23.9515 33.0009 21.6146L38.8235 15.4332V24.7121C38.8235 26.9212 40.6144 28.7121 42.8235 28.7121C45.0327 28.7121 46.8235 26.9212 46.8235 24.7121V10.3931C46.8235 4.96078 40.1808 2.32481 36.456 6.27911L28.4895 14.7366L17.387 5.17066C13.4981 1.81988 7.47059 4.5828 7.47059 9.71615V45.1176C7.47059 47.3268 9.26145 49.1176 11.4706 49.1176C13.6797 49.1176 15.4706 47.3268 15.4706 45.1176Z" fill="white"/>
</svg>
