<svg width="50" height="50" viewBox="0 0 50 50" fill="none" xmlns="http://www.w3.org/2000/svg">
<rect x="0.75" y="0.75" width="48.5" height="48.5" rx="11.25" stroke="url(#paint0_linear_70_581)" stroke-width="1.5"/>
<path fill-rule="evenodd" clip-rule="evenodd" d="M29.7123 21.0783L34.0456 17.98C34.9014 17.3625 36.0498 18.2183 35.6814 19.2258L31.1748 31.8466C31.0231 32.2691 30.6114 32.5616 30.1564 32.5616H19.8322C19.3772 32.5616 18.9656 32.28 18.8139 31.8466L14.3072 19.2258C13.9497 18.2183 15.0981 17.3625 15.9647 17.9691L20.2981 21.0675C20.8722 21.49 21.6847 21.2408 21.9339 20.5691L23.9922 15.12C24.3389 14.1775 25.6714 14.1775 26.0181 15.12L28.0656 20.58C28.3147 21.2408 29.1381 21.49 29.7123 21.0783ZM22.2914 27.9791H27.7081C28.1523 27.9791 28.5206 27.6108 28.5206 27.1666C28.5206 26.7225 28.1523 26.3541 27.7081 26.3541H22.2914C21.8472 26.3541 21.4789 26.7225 21.4789 27.1666C21.4789 27.6108 21.8472 27.9791 22.2914 27.9791ZM19.583 35.8333H30.4163C30.8605 35.8333 31.2288 35.4649 31.2288 35.0208C31.2288 34.5766 30.8605 34.2083 30.4163 34.2083H19.583C19.1388 34.2083 18.7705 34.5766 18.7705 35.0208C18.7705 35.4649 19.1388 35.8333 19.583 35.8333Z" fill="#D7D7D7"/>
<defs>
<linearGradient id="paint0_linear_70_581" x1="2.18635e-06" y1="-10.4168" x2="50.7226" y2="-9.8039" gradientUnits="userSpaceOnUse">
<stop stop-color="#9945FF"/>
<stop offset="1" stop-color="#20E19F"/>
</linearGradient>
</defs>
</svg>
