<svg width="50" height="50" viewBox="0 0 50 50" fill="none" xmlns="http://www.w3.org/2000/svg">
<rect x="0.75" y="0.75" width="48.5" height="48.5" rx="11.25" stroke="url(#paint0_linear_325_232)" stroke-width="1.5"/>
<path d="M36.2234 21.4592L35.9093 18.4584C35.4543 15.1867 33.9701 13.8542 30.7959 13.8542H28.2393H26.6359H23.3426H21.7393H19.1393C15.9543 13.8542 14.4809 15.1867 14.0151 18.4909L13.7226 21.47C13.6143 22.6292 13.9284 23.7559 14.6109 24.6334C15.4343 25.7059 16.7018 26.3125 18.1101 26.3125C19.4751 26.3125 20.7859 25.63 21.6093 24.5359C22.3459 25.63 23.6026 26.3125 25.0001 26.3125C26.3976 26.3125 27.6218 25.6625 28.3693 24.5792C29.2034 25.6517 30.4926 26.3125 31.8359 26.3125C33.2768 26.3125 34.5768 25.6734 35.3893 24.5467C36.0393 23.68 36.3318 22.5859 36.2234 21.4592Z" fill="white"/>
<path d="M24.2957 30.5483C22.9199 30.6891 21.8799 31.8591 21.8799 33.2458V36.2141C21.8799 36.5066 22.1182 36.745 22.4107 36.745H27.5782C27.8707 36.745 28.109 36.5066 28.109 36.2141V33.625C28.1199 31.3608 26.7874 30.2883 24.2957 30.5483Z" fill="white"/>
<path d="M35.1508 28.1V31.3284C35.1508 34.3184 32.7241 36.745 29.7341 36.745C29.4416 36.745 29.2033 36.5067 29.2033 36.2142V33.625C29.2033 32.2384 28.7808 31.155 27.9575 30.4184C27.2316 29.7575 26.2458 29.4325 25.0216 29.4325C24.7508 29.4325 24.48 29.4434 24.1875 29.4759C22.2591 29.6709 20.7966 31.2959 20.7966 33.2459V36.2142C20.7966 36.5067 20.5583 36.745 20.2658 36.745C17.2758 36.745 14.8491 34.3184 14.8491 31.3284V28.1217C14.8491 27.3634 15.5966 26.8542 16.3008 27.1034C16.5933 27.2009 16.8858 27.2767 17.1891 27.32C17.3191 27.3417 17.46 27.3634 17.59 27.3634C17.7633 27.385 17.9366 27.3959 18.11 27.3959C19.3666 27.3959 20.6016 26.93 21.5766 26.1284C22.5083 26.93 23.7216 27.3959 25 27.3959C26.2891 27.3959 27.4808 26.9517 28.4125 26.15C29.3875 26.9409 30.6008 27.3959 31.8358 27.3959C32.0308 27.3959 32.2258 27.385 32.41 27.3634C32.54 27.3525 32.6591 27.3417 32.7783 27.32C33.1141 27.2767 33.4175 27.1792 33.7208 27.0817C34.425 26.8434 35.1508 27.3634 35.1508 28.1Z" fill="white"/>
<defs>
<linearGradient id="paint0_linear_325_232" x1="2.18635e-06" y1="-10.4168" x2="50.7226" y2="-9.8039" gradientUnits="userSpaceOnUse">
<stop stop-color="#9945FF"/>
<stop offset="1" stop-color="#20E19F"/>
</linearGradient>
</defs>
</svg>
